PathFileType	4	(X/Y/Z)	s06c0402.trc
DataRate	CameraRate	NumFrames	NumMarkers	Units	OrigDataRate	OrigDataStartFrame	OrigNumFrames
200	200	4	48	mm	200	0	2000
Frame#	Time	racr			lacr			c7			jug			rlel			rdr			llel			ldr			s2			lic			ric			lasi			rasi			rpsi			lpsi			rgt			lgt			rth1			rth2			rth3			rth4			rlfc			rmfc			rsh1			rsh2			rsh3			rsh4			rlmal			rcal			rtoe			rmt5			lth1			lth2			lth4			lth3			llfc			lmfc			llmal			lcal			lmt5			lsh1			lsh2			lsh3			lsh4			ltoe			SBIKE			LBIKE			RBIKE			
		X1	Y1	Z1	X2	Y2	Z2	X3	Y3	Z3	X4	Y4	Z4	X5	Y5	Z5	X6	Y6	Z6	X7	Y7	Z7	X8	Y8	Z8	X9	Y9	Z9	X10	Y10	Z10	X11	Y11	Z11	X12	Y12	Z12	X13	Y13	Z13	X14	Y14	Z14	X15	Y15	Z15	X16	Y16	Z16	X17	Y17	Z17	X18	Y18	Z18	X19	Y19	Z19	X20	Y20	Z20	X21	Y21	Z21	X22	Y22	Z22	X23	Y23	Z23	X24	Y24	Z24	X25	Y25	Z25	X26	Y26	Z26	X27	Y27	Z27	X28	Y28	Z28	X29	Y29	Z29	X30	Y30	Z30	X31	Y31	Z31	X32	Y32	Z32	X33	Y33	Z33	X34	Y34	Z34	X35	Y35	Z35	X36	Y36	Z36	X37	Y37	Z37	X38	Y38	Z38	X39	Y39	Z39	X40	Y40	Z40	X41	Y41	Z41	X42	Y42	Z42	X43	Y43	Z43	X44	Y44	Z44	X45	Y45	Z45	X46	Y46	Z46	X47	Y47	Z47	X48	Y48	Z48	
0	0.0000	420.354697	1364.547777	-55.646424	438.285847	1369.622515	-387.084681	412.667611	1447.803607	-220.002893	453.051888	1296.123814	-216.900624	499.190497	1115.970500	17.606402	690.942452	948.417256	-40.219688	489.683247	1109.576203	-464.065935	677.958140	941.582548	-424.790586	-51.894734	1138.795576	-231.486928	134.847223	1088.778928	-387.446711	100.184218	1104.467861	-51.370007	144.199778	1018.760313	-361.171330	112.066401	1047.431491	-78.749324	-18.675757	1173.352232	-197.110870	-13.395618	1170.989621	-259.640744	55.571650	1054.757324	-19.091542	81.904401	1013.559619	-417.537693	157.858696	986.289957	-12.697216	246.808595	966.933775	-19.073419	310.348353	908.185056	-25.573670	258.848315	997.395388	-38.366024	380.947477	827.914986	-48.387248	380.177895	802.228892	-158.792271	347.547039	709.257163	-21.341538	342.874873	623.582758	-41.925063	298.982157	548.644219	-45.196704	366.019155	621.182740	-74.327667	269.085213	469.205955	-50.561682	206.256861	445.289525	-102.210852	477.736820	395.984340	-101.460975	379.329070	385.800229	-31.564285	118.992421	895.086963	-426.332740	183.097816	837.514909	-414.245045	212.520108	857.159137	-400.805069	209.730599	752.459800	-403.496329	228.390501	643.220919	-373.765433	219.288308	628.291961	-257.440175	-26.697287	370.907155	-380.474328	-107.766234	361.486303	-335.481233	70.079505	271.972197	-401.203760	160.002772	562.035238	-400.865867	117.500998	487.894710	-383.385079	42.222543	439.879884	-387.092336	134.570739	475.887411	-350.399538	153.386993	256.746663	-339.935302	-203.451758	866.188675	-215.114294	-49.148931	79.849532	-414.510828	-48.686998	79.478860	-17.023159	
1	0.0050	420.350643	1364.547935	-55.691681	438.292266	1369.600169	-387.097575	412.646470	1447.791155	-220.051722	453.052027	1296.116881	-216.922574	499.197997	1115.983415	17.616196	690.954228	948.403201	-40.215325	489.676683	1109.528153	-464.061401	677.978222	941.582757	-424.794113	-51.894794	1138.786017	-231.502932	134.836064	1088.781434	-387.440244	100.161310	1104.491441	-51.392425	144.189980	1018.749198	-361.208642	112.047642	1047.454848	-78.769570	-18.702826	1173.339779	-197.098773	-13.400018	1170.982625	-259.656684	55.554970	1054.760044	-19.088185	81.903154	1013.547883	-417.533304	157.855972	986.310184	-12.707041	246.792785	966.946565	-19.070075	310.369734	908.189229	-25.559252	258.847303	997.399356	-38.359869	380.969661	827.953382	-48.386798	380.194838	802.283306	-158.801256	347.546211	709.282476	-21.337057	342.879516	623.592465	-41.930989	298.970534	548.669862	-45.201933	366.017546	621.202617	-74.299209	269.071449	469.241523	-50.560237	206.254244	445.308697	-102.200959	477.715065	396.014978	-101.464205	379.294340	385.840794	-31.560500	118.978321	895.071650	-426.350330	183.075093	837.497565	-414.239976	212.494744	857.141190	-400.817513	209.694176	752.442915	-403.512455	228.368543	643.202242	-373.783758	219.292549	628.270899	-257.459036	-26.674427	370.874035	-380.466075	-107.756317	361.438097	-335.470916	70.097924	271.943422	-401.206510	160.007591	562.008421	-400.862085	117.487259	487.889671	-383.415986	42.228955	439.842759	-387.106090	134.531436	475.820208	-350.381531	153.412425	256.709062	-339.911224	-203.453907	866.194206	-215.116624	-49.131025	79.839922	-414.521949	-48.688268	79.469740	-17.022663	
2	0.0100	420.366789	1364.548480	-55.734824	438.265169	1369.583153	-387.138963	412.620467	1447.796089	-220.046664	453.045751	1296.116139	-216.935680	499.218151	1115.987515	17.598981	690.949736	948.413863	-40.247700	489.683005	1109.518199	-464.068071	677.982799	941.570258	-424.792763	-51.912764	1138.787722	-231.503298	134.831990	1088.769347	-387.440462	100.175014	1104.502341	-51.425392	144.197437	1018.750424	-361.183654	112.042787	1047.458736	-78.795890	-18.702354	1173.348477	-197.107893	-13.394084	1170.967928	-259.673822	55.546860	1054.768781	-19.093386	81.883629	1013.502560	-417.548980	157.863697	986.308863	-12.692689	246.798419	966.960375	-19.056299	310.366103	908.221322	-25.560391	258.827130	997.431907	-38.357894	380.979135	827.990454	-48.366107	380.206639	802.296239	-158.789687	347.519647	709.314341	-21.318284	342.871537	623.626824	-41.913012	298.954877	548.703404	-45.198610	365.997896	621.218034	-74.301698	269.045141	469.275126	-50.556889	206.220435	445.356631	-102.204890	477.691264	396.050473	-101.466982	379.296846	385.855114	-31.565816	118.964179	895.055218	-426.333421	183.059316	837.477345	-414.260020	212.482899	857.118472	-400.831029	209.686345	752.419693	-403.527488	228.360797	643.177891	-373.789624	219.289316	628.268359	-257.481032	-26.658964	370.841403	-380.469979	-107.738477	361.394173	-335.474919	70.119059	271.910980	-401.200584	160.000999	561.956130	-400.860408	117.499943	487.830239	-383.420417	42.239197	439.801969	-387.095816	134.538076	475.816190	-350.404955	153.423172	256.672619	-339.917840	-203.454015	866.187071	-215.115943	-49.133809	79.838263	-414.522270	-48.695044	79.482246	-17.021055	
3	0.0150	420.377143	1364.538820	-55.785290	438.193463	1369.495764	-387.540478	412.621021	1447.804661	-220.092787	453.025530	1296.113555	-216.950029	499.359763	1116.001831	17.773234	690.946881	948.402701	-40.265261	489.698756	1109.500436	-464.074352	678.049990	941.504284	-424.786161	-52.271220	1139.134484	-230.921382	135.139312	1087.847807	-386.064240	100.069385	1104.340322	-51.416426	144.322610	1018.613339	-361.195889	111.923941	1047.315912	-78.832618	-18.110348	1174.343655	-198.591064	-13.368323	1171.264739	-259.558127	55.840443	1054.721561	-19.091264	81.772491	1013.551146	-417.414505	158.116480	985.963787	-13.185364	246.768238	966.977848	-19.054597	310.429582	908.112282	-25.526834	258.799787	997.548031	-38.397098	381.593149	827.947200	-48.089493	380.347568	802.293870	-158.758013	347.528894	709.342165	-21.319160	342.656766	623.450429	-42.188013	298.919684	548.743233	-45.189052	366.303484	621.262512	-74.223983	268.641833	469.788551	-50.157344	206.192973	445.381282	-102.208660	477.674060	396.102991	-101.476416	379.285702	385.912374	-31.558878	118.944872	895.036931	-426.355502	183.029910	837.460412	-414.274828	212.225438	857.270345	-400.640050	209.655698	752.393612	-403.535552	228.334150	643.150555	-373.801060	219.275420	628.257151	-257.484944	-26.647799	370.616776	-380.206205	-107.715402	361.337139	-335.480617	70.114325	271.866179	-401.203772	160.149341	561.829512	-400.942893	117.354775	487.639060	-383.425149	42.022136	440.157608	-387.670798	133.880581	475.130748	-349.555274	153.441860	256.625301	-339.913293	-203.546137	866.159547	-215.359861	-49.130276	79.843349	-414.503519	-48.712313	79.472920	-17.034997	
